<svg width="58" height="32" viewBox="0 0 58 32" fill="none" xmlns="http://www.w3.org/2000/svg">
<path d="M53.806 0.0214844H36.7392C34.4989 0.0214844 32.6758 1.84418 32.6758 4.0868C32.6758 6.32736 34.4989 8.15006 36.7392 8.15006H53.806C56.0463 8.15006 57.8694 6.32736 57.8694 4.08474C57.8694 1.84397 56.0463 0.0214844 53.806 0.0214844Z" fill="#002BFF"/>
<path d="M53.8473 0C51.5935 0 49.7599 1.83341 49.7599 4.08695C49.7599 6.34049 51.5933 8.17391 53.8473 8.17391C56.101 8.17391 57.9342 6.34049 57.9342 4.08695C57.9342 1.83341 56.101 0 53.8473 0Z" fill="#FF0062"/>
<path d="M7.43234 6.20549L2.74229 6.20508L2.74064 10.1103L0 10.1105L0.000617803 14.2195L2.7394 14.2209L2.74022 25.5873L7.43213 25.5878L7.43337 14.2216L10.4068 14.2201L10.4062 10.1111L7.43275 10.1103L7.43234 6.20549Z" fill="black"/>
<path d="M24.4972 10.8276C23.1777 10.1173 21.6966 9.76044 20.1985 9.79196C18.7061 9.76703 17.2318 10.1227 15.9147 10.8253C14.6807 11.4867 13.6521 12.4743 12.941 13.6805C12.2053 14.9481 11.8296 16.3927 11.8546 17.8583C11.8302 19.3074 12.204 20.7356 12.9353 21.9869C13.647 23.1914 14.6764 24.177 15.9106 24.8355C18.6059 26.2121 21.798 26.2121 24.4933 24.8357C25.7213 24.1704 26.7446 23.1826 27.4524 21.9784C28.1824 20.7246 28.5553 19.2949 28.531 17.8441C28.5574 16.3777 28.1834 14.9318 27.4497 13.6619C26.7413 12.4665 25.7207 11.4867 24.4972 10.8276ZM23.759 17.8655C23.7884 18.5714 23.6374 19.2732 23.3203 19.9046C23.031 20.4829 22.595 20.9748 22.056 21.3317C20.9274 22.0304 19.5008 22.031 18.3716 21.3335C17.825 20.9799 17.3824 20.4877 17.089 19.9066C16.7725 19.2736 16.6128 18.5737 16.6229 17.8661C16.6075 17.1388 16.7684 16.4184 17.0919 15.7669C17.3836 15.184 17.8268 14.6905 18.3747 14.3376C18.9216 13.9861 19.5603 13.8039 20.2106 13.8144C20.8638 13.8006 21.5069 13.9774 22.0609 14.3234C22.6059 14.6745 23.0446 15.1679 23.3291 15.7504C23.65 16.4084 23.8006 17.1363 23.7672 17.8676L23.759 17.8655Z" fill="black"/>
<path d="M44.3908 10.8374C43.3435 10.1519 42.1146 9.79583 40.8629 9.8152C39.994 9.81252 39.1329 9.97695 38.326 10.2996C37.5849 10.5866 36.9064 11.0148 36.3282 11.5604C36.267 11.6208 36.206 11.6834 36.1491 11.7459L36.0529 10.1171L31.5957 10.116L31.6035 31.9997H36.3266L36.3261 24.0415C38.5142 26.1228 41.8398 26.4426 44.3845 24.8169C45.4417 24.1073 46.2875 23.125 46.8327 21.9743C47.4401 20.6918 47.7403 19.2856 47.7099 17.8669C47.7364 16.4258 47.4321 14.9977 46.8201 13.6926C46.2859 12.5375 45.4458 11.5501 44.3908 10.8374ZM42.714 19.9742C42.4622 20.5519 42.0471 21.0431 41.5196 21.3879C40.9735 21.7266 40.3404 21.8984 39.6979 21.8822C39.0431 21.8993 38.3971 21.7276 37.8373 21.3877C37.3005 21.0464 36.8736 20.5571 36.6084 19.9787C36.3049 19.3134 36.1551 18.5885 36.1704 17.8574C36.1514 17.1148 36.3008 16.3772 36.6076 15.7007C36.8746 15.1259 37.297 14.6369 37.8268 14.2889C38.3852 13.9403 39.0336 13.7647 39.6917 13.7839C40.3364 13.7684 40.9709 13.9467 41.5134 14.2953C42.039 14.6483 42.4534 15.1434 42.7074 15.7232C43.0046 16.3953 43.1527 17.1239 43.1416 17.8589C43.1556 18.5881 43.0097 19.3115 42.714 19.9783V19.9742Z" fill="black"/>
<path d="M55.7248 10.1084H51.0312V25.5846H55.7248V10.1084Z" fill="black"/>
</svg>
